<svg xmlns="http://www.w3.org/2000/svg" viewBox="0 0 168 72">
  <style type="text/css">
    #zero { fill: #C9D1D9 }
    #js   { fill: #F7DF1E }
  </style>
  <path id="js" d="M154.2 65.8c-1.3 0-2.6-.3-3.8-.7-1.2-.5-2.2-1.2-3.1-2.1-.9-.9-1.6-1.9-2.1-3.1-.5-1.2-.8-2.5-.8-3.8v-1h6.7v1c0 .9.3 1.6.9 2.2.6.6 1.3.9 2.2.9.4 0 .8-.1 1.2-.2.4-.2.7-.4 1-.6.3-.3.5-.6.7-1 .2-.4.2-.8.2-1.2 0-.5-.1-.9-.2-1.2-.1-.2-.3-.5-.5-.6-.3-.2-.7-.4-1.2-.6-.6-.2-1.3-.5-2.2-.7-.8-.2-1.7-.6-2.7-.9-1-.4-2-.9-2.9-1.6-.9-.7-1.7-1.6-2.3-2.8-.6-1.1-.9-2.6-.9-4.3 0-1.3.3-2.6.8-3.8.5-1.2 1.2-2.2 2.1-3.1.9-.9 1.9-1.6 3.1-2.1 2.4-1 5.2-1 7.6 0 1.2.5 2.2 1.2 3.1 2.1.9.9 1.6 1.9 2.1 3.1.5 1.2.8 2.5.8 3.8v1h-6.7v-1c0-.9-.3-1.6-.9-2.2-.6-.6-1.3-.9-2.2-.9-.9 0-1.6.3-2.2.9-.6.6-.9 1.3-.9 2.1 0 .5.1.9.2 1.2.1.2.2.4.5.6.3.2.7.4 1.2.6.6.2 1.3.5 2.2.7.8.2 1.7.6 2.7.9 1 .4 2 .9 2.9 1.6.9.7 1.7 1.6 2.3 2.8.6 1.2.9 2.6.9 4.3 0 1.3-.3 2.6-.8 3.8-.5 1.2-1.2 2.2-2.1 3.1-.9.9-1.9 1.6-3.1 2.1-1.2.4-2.4.7-3.8.7zM132.7 34v17.1c0 1.7-.6 3.1-1.8 4.3s-2.7 1.8-4.3 1.8c-1.4 0-2.6-.4-3.7-1.2l-5.8 5.8c1.2 1 2.5 1.9 3.9 2.5 1.7.7 3.6 1.1 5.5 1.1s3.8-.4 5.6-1.1c1.7-.7 3.3-1.8 4.6-3.1 1.3-1.3 2.3-2.8 3.1-4.6.8-1.8 1.2-3.6 1.2-5.6V34h-8.3z"/>
  <path id="zero" d="M10.9 55.8H33V64H0v-8.4l22.1-33.8H0v-8.2h33V22L10.9 55.8zm58.3-34H45.5v12.9h23.7v8.2H45.5v12.9h23.7V64H37.3V13.6h31.9v8.2zM108.8 64h-9.3l-8.6-16.7h-8.6V64h-8.2V13.6h16.2c2.4 0 4.6.4 6.6 1.3s3.8 2.1 5.4 3.6c1.5 1.5 2.8 3.3 3.6 5.4.9 2.1 1.3 4.2 1.3 6.6 0 3.1-.8 5.9-2.3 8.4-1.5 2.5-3.5 4.6-6.1 6l10 19.1zM82.3 21.8v17.3h8c1.2 0 2.3-.2 3.4-.7 1.1-.5 2-1.1 2.8-1.9.8-.8 1.4-1.7 1.9-2.7.5-1 .7-2.2.7-3.4s-.2-2.3-.7-3.4c-.5-1-1.1-2-1.9-2.7-.8-.8-1.7-1.4-2.8-1.9-1.1-.5-2.2-.7-3.4-.7h-8zm32.2 36.9 6.1-6.1c-.1-.5-.2-.9-.2-1.4V26.4c0-1.7.6-3.1 1.8-4.3 1.2-1.2 2.6-1.8 4.3-1.8s3.1.6 4.3 1.8c1.2 1.2 1.8 2.6 1.8 4.3V30h8.2v-3.5c0-2-.4-3.8-1.2-5.6-.8-1.8-1.8-3.3-3.1-4.6-1.3-1.3-2.8-2.3-4.6-3.1-1.7-.7-3.6-1.1-5.6-1.1s-3.8.4-5.5 1.1-3.2 1.8-4.5 3.1c-1.3 1.3-2.3 2.8-3.1 4.6-.8 1.8-1.1 3.6-1.1 5.6V51c0 2 .4 3.8 1.1 5.6.5.7.9 1.4 1.3 2.1z"/>
</svg>
